<svg width="120" height="120" viewBox="0 0 120 120" fill="none" xmlns="http://www.w3.org/2000/svg">
  <rect width="120" height="120" rx="18" fill="#AB0B0B"/>
  <path d="M38 82.5C42.2 82.5 46.3 80.8 49.2 77.6L52.1 74.4C53 73.5 52.9 72.1 52 71.2C51.1 70.3 49.7 70.4 48.8 71.3L46 74.5C44.1 76.6 41.2 77.9 38 77.9C32.2 77.9 27.5 73.1 27.5 67.3V53C27.5 47.2 32.2 42.4 38 42.4C43.8 42.4 48.6 47.2 48.6 53V56.6C48.6 58 49.7 59.1 51.1 59.1C52.5 59.1 53.6 58 53.6 56.6V53C53.6 44.4 46.7 37.5 38 37.5C29.3 37.5 22.4 44.4 22.4 53V67.3C22.4 76 29.3 82.9 38 82.9L38 82.5Z" fill="white"/>
  <path d="M66.2 82.5C74.9 82.5 81.8 75.6 81.8 66.9V53C81.8 44.3 74.9 37.4 66.2 37.4C57.5 37.4 50.6 44.3 50.6 53V66.9C50.6 75.6 57.5 82.5 66.2 82.5ZM55.6 66.9V53C55.6 47.1 60.3 42.4 66.2 42.4C72.1 42.4 76.8 47.1 76.8 53V66.9C76.8 72.8 72.1 77.5 66.2 77.5C60.3 77.5 55.6 72.8 55.6 66.9Z" fill="white"/>
  <path d="M93.6 82C95 82 96.1 80.9 96.1 79.5V40.8C96.1 39.4 95 38.3 93.6 38.3C92.2 38.3 91.1 39.4 91.1 40.8V79.5C91.1 80.9 92.2 82 93.6 82Z" fill="white"/>
</svg>
